<?xml version="1.0" encoding="UTF-8" standalone="no"?>
<!-- Created with Inkscape (http://www.inkscape.org/) -->

<svg
   width="192"
   height="192"
   viewBox="0 0 50.8 50.8"
   version="1.1"
   id="svg5"
   inkscape:version="1.3.1 (9b9bdc1480, 2023-11-25, custom)"
   sodipodi:docname="icon_bw.inkscape.svg"
   inkscape:export-filename="icon.inkscape.pdf"
   inkscape:export-xdpi="96"
   inkscape:export-ydpi="96"
   xmlns:inkscape="http://www.inkscape.org/namespaces/inkscape"
   xmlns:sodipodi="http://sodipodi.sourceforge.net/DTD/sodipodi-0.dtd"
   xmlns="http://www.w3.org/2000/svg"
   xmlns:svg="http://www.w3.org/2000/svg">
  <sodipodi:namedview
     id="namedview7"
     pagecolor="#ffffff"
     bordercolor="#000000"
     borderopacity="0.25"
     inkscape:showpageshadow="2"
     inkscape:pageopacity="0.0"
     inkscape:pagecheckerboard="0"
     inkscape:deskcolor="#d1d1d1"
     inkscape:document-units="mm"
     showgrid="false"
     inkscape:zoom="6.0435944"
     inkscape:cx="92.908287"
     inkscape:cy="99.940526"
     inkscape:window-width="2560"
     inkscape:window-height="1371"
     inkscape:window-x="0"
     inkscape:window-y="32"
     inkscape:window-maximized="1"
     inkscape:current-layer="layer1" />
  <defs
     id="defs2" />
  <g
     inkscape:label="Layer 1"
     inkscape:groupmode="layer"
     id="layer1">
    <path
       style="fill:#ffffff;fill-opacity:1;stroke-width:0.155181"
       d="M 46.274046,33.092075 C 41.877484,51.176205 26.431105,47.617049 16.898387,43.503907 3.3914713,37.675991 -1.6151353,18.199142 12.108929,18.199142 c 3.843487,0 6.594702,-3.408986 13.115628,-11.9817641 6.80148,-8.9416146 25.009126,10.5877701 21.049489,26.8746971 z"
       id="path269-7-6"
       sodipodi:nodetypes="cccsc" />
    <circle
       style="fill:#ffffff;fill-opacity:1;stroke:none;stroke-width:0.149672;stroke-linejoin:bevel;stroke-dasharray:none;stroke-dashoffset:0;stroke-opacity:1"
       id="path9515-3-9"
       cx="25.4"
       cy="25.400002"
       r="1.984375" />
    <rect
       style="display:none;fill:#787878;fill-opacity:1;stroke:none;stroke-width:0;stroke-linejoin:bevel;stroke-dasharray:none;stroke-dashoffset:0;stroke-opacity:1"
       id="rect27608-2"
       width="6.1494384"
       height="0.52916664"
       x="64.230522"
       y="31.341692" />
    <rect
       style="display:none;fill:#787878;fill-opacity:1;stroke:none;stroke-width:0;stroke-linejoin:bevel;stroke-dasharray:none;stroke-dashoffset:0;stroke-opacity:1"
       id="rect27608-28"
       width="8.2541857"
       height="0.52916664"
       x="64.230522"
       y="14.958699"
       inkscape:label="ref3" />
    <rect
       style="display:none;fill:#787878;fill-opacity:1;stroke:none;stroke-width:0;stroke-linejoin:bevel;stroke-dasharray:none;stroke-dashoffset:0;stroke-opacity:1"
       id="rect27608-6-8-9"
       width="0.52916664"
       height="6.3370299"
       x="55.691612"
       y="18.855461"
       inkscape:label="fer2" />
    <rect
       style="display:none;fill:#787878;fill-opacity:1;stroke:none;stroke-width:0;stroke-linejoin:bevel;stroke-dasharray:none;stroke-dashoffset:0;stroke-opacity:1"
       id="rect27608-6-8-7"
       width="0.52916664"
       height="8.6479855"
       x="74.799927"
       y="19.090786"
       inkscape:label="ref1" />
    <path
       style="fill:#000000;stroke-width:0.264583"
       d="m -14.363827,12.258783 5.5721743,2.600348"
       id="path559" />
    <path
       id="rect1658"
       style="fill:#000000;fill-opacity:1;stroke:#000000;stroke-width:0;stroke-dasharray:none;stroke-opacity:1"
       d="M 5e-7,5e-7 V 50.800001 H 50.800001 V 5e-7 Z m 3.96875,3.96875 H 46.831251 V 46.831251 H 3.9687505 Z" />
    <path
       style="fill:#000000;fill-opacity:1;stroke-width:0.165464"
       d="M 112.59856,176.86571 C 97.958885,176.05353 83.711958,172.5214 66.586088,165.45822 57.399587,161.66945 50.34705,157.3831 42.938024,151.08555 40.690447,149.17514 35.846747,144.31522 33.768942,141.88576 23.324213,129.67333 16.520562,114.90668 15.29396,101.78765 15.016893,98.824297 15.174779,93.713382 15.619858,91.238027 17.60827,80.179251 24.313763,72.913816 35.078463,70.154538 c 3.051369,-0.782148 5.255304,-1.070531 9.516007,-1.245158 4.245566,-0.174009 5.981834,-0.430488 8.410447,-1.24238 6.388652,-2.135744 12.717467,-7.355431 21.958674,-18.110398 2.741478,-3.190549 9.109061,-11.195287 14.558252,-18.301292 2.71432,-3.539604 5.398453,-7.035444 5.964739,-7.768533 0.566287,-0.73309 1.773132,-2.036123 2.681877,-2.895628 2.596911,-2.456193 5.316721,-3.982289 8.752481,-4.911055 1.51504,-0.409548 1.85635,-0.438902 5.09849,-0.438488 3.73374,4.78e-4 4.93545,0.170813 8.19049,1.160956 6.59868,2.007237 14.11337,6.579309 20.91653,12.725981 17.26641,15.600266 30.52938,39.773611 34.42438,62.74255 2.08979,12.323567 1.77444,23.101637 -0.99988,34.174297 -2.71169,10.8227 -7.06595,20.83995 -12.20776,28.08474 -9.4311,13.28837 -22.33397,20.67209 -39.16801,22.41406 -2.4033,0.24869 -8.5315,0.43498 -10.57662,0.32152 z M 98.40627,103.1544 c 1.95241,-0.65772 3.42241,-1.92004 4.32076,-3.710317 0.63331,-1.262082 0.8176,-2.236537 0.74324,-3.930047 -0.0849,-1.933836 -0.67784,-3.313985 -2.035,-4.736831 -4.661378,-4.886969 -12.979281,-1.558686 -12.992559,5.198776 -0.0064,3.262692 2.066417,6.138059 5.208005,7.224399 1.203734,0.41624 3.447877,0.39454 4.755554,-0.046 z"
       id="path1"
       transform="scale(0.26458333)" />
  </g>
</svg>
